<!-- This is a placeholder icon file. In a real implementation, you would replace this with actual PNG icon files -->
<!-- To create proper icons, you can: -->
<!-- 1. Use online tools like https://realfavicongenerator.net/ -->
<!-- 2. Create SVG icons and convert them to PNG -->
<!-- 3. Use design tools like Canva, Figma, or Photoshop -->

<!-- For now, you can use this SVG as a base and convert it to PNG at different sizes -->
<svg width="192" height="192" viewBox="0 0 192 192" xmlns="http://www.w3.org/2000/svg">
  <!-- Background -->
  <rect width="192" height="192" rx="24" fill="#2196F3"/>
  
  <!-- QR Code Symbol -->
  <rect x="32" y="32" width="20" height="20" rx="2" fill="white"/>
  <rect x="56" y="32" width="20" height="20" rx="2" fill="white"/>
  <rect x="80" y="32" width="20" height="20" rx="2" fill="white"/>
  <rect x="128" y="32" width="20" height="20" rx="2" fill="white"/>
  <rect x="152" y="32" width="20" height="20" rx="2" fill="white"/>
  
  <rect x="32" y="56" width="20" height="20" rx="2" fill="white"/>
  <rect x="80" y="56" width="20" height="20" rx="2" fill="white"/>
  <rect x="104" y="56" width="20" height="20" rx="2" fill="white"/>
  <rect x="152" y="56" width="20" height="20" rx="2" fill="white"/>
  
  <rect x="32" y="80" width="20" height="20" rx="2" fill="white"/>
  <rect x="56" y="80" width="20" height="20" rx="2" fill="white"/>
  <rect x="80" y="80" width="20" height="20" rx="2" fill="white"/>
  <rect x="128" y="80" width="20" height="20" rx="2" fill="white"/>
  <rect x="152" y="80" width="20" height="20" rx="2" fill="white"/>
  
  <!-- School/Education Symbol -->
  <rect x="32" y="128" width="128" height="32" rx="4" fill="white"/>
  <path d="M96 110 L72 125 L96 140 L120 125 Z" fill="white"/>
  <text x="96" y="148" text-anchor="middle" font-family="Arial, sans-serif" font-size="14" font-weight="bold" fill="#2196F3">SCAN</text>
</svg>